<svg width="25" height="25" viewBox="0 0 25 25" fill="none" xmlns="http://www.w3.org/2000/svg">
<path d="M2.69371 1.64551C2.56293 1.5801 2.41641 1.55271 2.27083 1.56644C2.12525 1.58018 1.98645 1.6345 1.87022 1.72323C1.75398 1.81195 1.66498 1.93151 1.61334 2.06832C1.56169 2.20512 1.54948 2.35367 1.57808 2.49707L3.77027 10.0752C3.81115 10.2164 3.89104 10.3432 4.00077 10.4411C4.1105 10.5389 4.24562 10.6038 4.39058 10.6283L13.2812 12.1174C13.7 12.2002 13.7 12.8002 13.2812 12.883L4.39058 14.3721C4.24562 14.3966 4.1105 14.4615 4.00077 14.5593C3.89104 14.6572 3.81115 14.784 3.77027 14.9252L1.57808 22.5033C1.54948 22.6467 1.56169 22.7953 1.61334 22.9321C1.66498 23.0689 1.75398 23.1884 1.87022 23.2772C1.98645 23.3659 2.12525 23.4202 2.27083 23.434C2.41641 23.4477 2.56293 23.4203 2.69371 23.3549L23.0062 13.1986C23.1358 13.1337 23.2448 13.034 23.3209 12.9106C23.3971 12.7873 23.4374 12.6452 23.4374 12.5002C23.4374 12.3552 23.3971 12.2131 23.3209 12.0898C23.2448 11.9664 23.1358 11.8667 23.0062 11.8018L2.69371 1.64551Z" fill="black"/>
</svg>
