<svg width="1024" height="82" viewBox="0 0 1024 82" fill="none" xmlns="http://www.w3.org/2000/svg">
<path d="M0 56.7985L28.4444 44.1978C56.8889 31.5971 113.778 6.3956 170.667 4.30861C227.556 2.0641 284.444 23.3278 341.333 37.8974C398.222 52.467 455.111 61.13 512 48.4112C568.889 35.9286 625.778 2.0641 682.667 0.0952388C739.556 -1.87363 796.444 27.2656 853.333 33.6841C910.222 39.8663 967.111 23.3278 995.556 14.783L1024 6.3956V82H995.556C967.111 82 910.222 82 853.333 82C796.444 82 739.556 82 682.667 82C625.778 82 568.889 82 512 82C455.111 82 398.222 82 341.333 82C284.444 82 227.556 82 170.667 82C113.778 82 56.8889 82 28.4444 82H0V56.7985Z" fill="#8B2CF5"/>
</svg>
